# xmcd CD database file
#
# Track frame offsets:
#	150
#	23904
#	52695
#	73149
#	96613
#	120499
#	134146
#	158164
#	192587
#	227538
#	251139
#
# Disc length: 3998 seconds
#
# Revision: 0
# Processed by: cddbd v1.5.1PL0 Copyright (c) Steve Scherf et al.
# Submitted via: CDex 1.51
#
DISCID=9e0f9c0b
DTITLE=Thelonious Monk - The complete prestige recordings 2
DYEAR=1900
DGENRE=Jazz
TTITLE0=We see
TTITLE1=Locomotive
TTITLE2=Smoke gets in your eyes
TTITLE3=Hackensack
TTITLE4=Nutty
TTITLE5=Just a gigolo
TTITLE6=Work
TTITLE7=Blue monk
TTITLE8=I want to be happy
TTITLE9=The way you look tonight
TTITLE10=More than you know
EXTD=
EXTT0=
EXTT1=
EXTT2=
EXTT3=
EXTT4=
EXTT5=
EXTT6=
EXTT7=
EXTT8=
EXTT9=
EXTT10=
PLAYORDER=
